<?xml version="1.0" encoding="utf-8"?>
<!-- Generator: Adobe Illustrator 28.1.0, SVG Export Plug-In . SVG Version: 6.00 Build 0)  -->
<svg version="1.1" id="Layer_1" xmlns="http://www.w3.org/2000/svg" xmlns:xlink="http://www.w3.org/1999/xlink" x="0px" y="0px"
	 viewBox="0 0 512 512" style="enable-background:new 0 0 512 512;" xml:space="preserve">
<path d="M256,0C114.6,0,0,114.6,0,256s114.6,256,256,256s256-114.6,256-256S397.4,0,256,0z M310.6,345.4c12.5,12.5,12.5,32.8,0,45.2
	s-32.8,12.5-45.2,0l-112-112c-6.2-6.2-9.4-14.4-9.4-22.6s3.1-16.4,9.4-22.6l112-112c12.5-12.5,32.8-12.5,45.2,0s12.5,32.8,0,45.2
	L221.3,256L310.6,345.4z"/>
</svg>
